# xmcd
#
# Track frame offsets:
#	150
#	12176
#	24513
#	38037
#	59557
#	76390
#	98644
#	114715
#	141530
#	159555
#	174012
#	188716
#	209605
#	226683
#	245550
#	262673
#	282367
#	299144
#	316694
#
# Disc length: 4506 seconds
#
# Revision: 0
# Processed by: cddbd v1.5.2PL0 Copyright (c) Steve Scherf et al.
# Submitted via: EasyCDDAExtractor 10.2.0.1
#
DISCID=06119813
DTITLE=Van Morrison - Van Morrison At The Movies: Soundtrack Hits
DYEAR=2007
DGENRE=Blues
TTITLE0=Gloria
TTITLE1=Baby Please Don't Go
TTITLE2=Jackie Wilson Said (I'm In Heaven When You Smile)
TTITLE3=Domino
TTITLE4=Moondance
TTITLE5=Queen Of The Slipstream
TTITLE6=Wild Night
TTITLE7=Caravan
TTITLE8=Wonderful Remark
TTITLE9=Brown Eyed Girl
TTITLE10=Days Like This
TTITLE11=Into The Mystic
TTITLE12=Hungry For Your Love
TTITLE13=Someone Like You
TTITLE14=Bright Side Of The Road
TTITLE15=Have I Told You Lately
TTITLE16=Real Real Gone
TTITLE17=Irish Heartbeat
TTITLE18=Comfortably Numb (Live With Roger Waters)
EXTD=
EXTT0=
EXTT1=
EXTT2=
EXTT3=
EXTT4=
EXTT5=
EXTT6=
EXTT7=
EXTT8=
EXTT9=
EXTT10=
EXTT11=
EXTT12=
EXTT13=
EXTT14=
EXTT15=
EXTT16=
EXTT17=
EXTT18=
PLAYORDER=
